<svg width="185" height="185" viewBox="0 0 185 185" fill="none" xmlns="http://www.w3.org/2000/svg">
<path d="M103.689 72.5148L78.8511 93.7778C82.6424 94.6803 86.1285 96.567 88.9576 99.2473C93.3679 103.441 95.5754 108.73 95.5799 115.116C95.5912 118.433 95.1233 121.733 94.1907 124.916C93.2623 128.043 91.8382 130.741 89.9186 133.01C87.9989 135.279 85.5785 137.089 82.6573 138.44C79.7316 139.789 76.3473 140.463 72.5046 140.463C69.2271 140.463 66.3436 139.931 63.8541 138.866C61.4638 137.862 59.2884 136.408 57.4459 134.584C55.6835 132.831 54.2062 130.812 53.0676 128.602C51.984 126.553 51.1929 124.362 50.7174 122.093L22.0972 131.496C25.5334 142.031 32.1825 151.226 41.1111 157.79C45.5804 161.052 50.5116 163.628 55.7415 165.435C61.1325 167.306 66.8015 168.251 72.508 168.23C79.7698 168.23 86.64 166.842 93.1184 164.066C99.5968 161.29 105.222 157.518 109.993 152.75C114.761 147.975 118.534 142.349 121.312 135.872C124.09 129.395 125.479 122.526 125.476 115.265C125.476 106.15 123.412 97.785 119.284 90.1703C115.52 83.1593 110.182 77.1161 103.689 72.5148Z" fill="white"/>
<path d="M108.167 31.4277L68.402 49.7718L43.3534 115.224L162.903 16.7699H34.6361L57.3551 43.5195L108.167 31.4277Z" fill="white"/>
</svg>
