<svg id="Layer_1" data-name="Layer 1" xmlns="http://www.w3.org/2000/svg" viewBox="0 0 430 430">
  <defs>
    <style>
      .cls-1{fill:#0a0a0a;}
    </style>
  </defs>
  <title>Logo</title><path class="cls-1" d="M59,109.58V320.42A38.56,38.56,0,0,0,97.56,359H308.4A38.56,38.56,0,0,0,347,320.42V109.58A38.56,38.56,0,0,0,308.4,71H97.56A38.56,38.56,0,0,0,59,109.58ZM238.65,268.71a65,65,0,0,1-34.91,34.91,64,64,0,0,1-25.52,5.16,62.61,62.61,0,0,1-20.76-3.46,68.87,68.87,0,0,1-18.12-9.47,65.7,65.7,0,0,1-23.54-32.56l35.44-11.63a30.72,30.72,0,0,0,2.91,8.06,29.52,29.52,0,0,0,5.42,7.41,25.1,25.1,0,0,0,7.94,5.29,27,27,0,0,0,10.71,2,29.56,29.56,0,0,0,12.56-2.51,25.66,25.66,0,0,0,9-6.72,27.29,27.29,0,0,0,5.29-10A42.63,42.63,0,0,0,206.78,243a26,26,0,0,0-8.2-19.65,27.43,27.43,0,0,0-12.51-6.77l30.77-26.33a65.52,65.52,0,0,1,21.82,78.46Zm-96.53-25.57,31-81.05,49.24-22.72-62.92,15-28.13-33.13H290.16Z"/>
</svg>
