<svg id="Layer_1" data-name="Layer 1" xmlns="http://www.w3.org/2000/svg" viewBox="0 0 1080 430"><defs><style>.cls-1{fill:#0a0a0a;}</style></defs><title>2 PNG</title><path class="cls-1" d="M718.84,105.84V324.16a39.92,39.92,0,0,0,39.92,39.92H977.08A39.92,39.92,0,0,0,1017,324.16V105.84a39.92,39.92,0,0,0-39.92-39.92H758.77A39.92,39.92,0,0,0,718.84,105.84Zm186,164.77a67.34,67.34,0,0,1-36.15,36.15,66.28,66.28,0,0,1-26.43,5.34,64.83,64.83,0,0,1-21.5-3.58,71.31,71.31,0,0,1-18.76-9.8A68,68,0,0,1,777.65,265l36.7-12a31.81,31.81,0,0,0,3,8.35A30.56,30.56,0,0,0,823,269a26,26,0,0,0,8.22,5.48,28,28,0,0,0,11.09,2,30.61,30.61,0,0,0,13-2.59,26.57,26.57,0,0,0,9.31-7,28.25,28.25,0,0,0,5.48-10.38A44.14,44.14,0,0,0,871.86,244a26.89,26.89,0,0,0-8.49-20.35,28.4,28.4,0,0,0-13-7l31.86-27.26a67.84,67.84,0,0,1,22.59,81.24Zm-99.95-26.48L837,160.21l51-23.52-65.15,15.5-29.13-34.3H958.19Z"/><path class="cls-1" d="M139.66,326.22q-3.34-3.34-7.59-7.37l-13.26,13-13.26-13.16L90.8,333.28,105.55,348l13.16-13.37,13.37,13.47,14.75-14.75Z"/><path class="cls-1" d="M321.84,148.35l13.47,13.38L350.06,147c-2.61-2.56-5-4.93-7.21-7.16s-4.7-4.72-7.54-7.49L322,145.49l-13.28-13.17L294,146.86l14.63,14.75Z"/><path class="cls-1" d="M331.78,215.62a18.06,18.06,0,0,1-1.49,7.42,17.07,17.07,0,0,1-3.88,5.51,16,16,0,0,1-5.51,3.4,17.66,17.66,0,0,1-6.3,1.16H299.84c-24.22,0-126.61,0-135.94-.05q-15.17-.05-31.19-.05-1.06,3.08-2,5.73t-1.75,5.2l-1.75,5.25-2,5.89h5.41a75.91,75.91,0,0,1,10.61.64,36.19,36.19,0,0,1,8.17,2.23,11.17,11.17,0,0,1,4.62,3.29,6.77,6.77,0,0,1,1.43,4.14q0,3.5-3.93,7.48a43.77,43.77,0,0,1-10.24,7.43A69.38,69.38,0,0,1,127.3,286a55.46,55.46,0,0,1-15.38,2.23A42.13,42.13,0,0,1,100,286.55a25.9,25.9,0,0,1-9.92-5.41,26.36,26.36,0,0,1-6.84-9.87,39,39,0,0,1-2.55-15q0-1.48.05-3.24t.16-3.34q-4.46,1.8-8.59,3.39t-8.91,3.5q-.21,1.91-.32,3.87T63,264.32a57.63,57.63,0,0,0,2.17,15.76A44.28,44.28,0,0,0,71.81,294a37.39,37.39,0,0,0,11.25,10.29,36.46,36.46,0,0,0,16.13,4.83q3.61.32,7.21.32a79.65,79.65,0,0,0,17.24-2,94.93,94.93,0,0,0,17.19-5.57,91.75,91.75,0,0,0,15.7-8.7,68.45,68.45,0,0,0,12.79-11.3,48.45,48.45,0,0,0,8.38-13.42A34.71,34.71,0,0,0,180.34,255v-1.48H314.68a36,36,0,0,0,14.54-3,38.21,38.21,0,0,0,11.89-8,39,39,0,0,0,8.07-11.89,36,36,0,0,0,3-14.54V176.15H331.78Z"/><path class="cls-1" d="M573.46,233.34H573a17.47,17.47,0,0,1-9.55-2.76,27.27,27.27,0,0,1-8-7.21,36.22,36.22,0,0,1-7.06-21.11,28.38,28.38,0,0,1,.9-7.11,20.64,20.64,0,0,1,2.81-6.37,18.9,18.9,0,0,1,4.93-5,21.78,21.78,0,0,1,7.16-3.18c.57-.07,1.17-.16,1.8-.26a11.62,11.62,0,0,1,1.91-.16,17.4,17.4,0,0,1,5.41.9,16.2,16.2,0,0,1,5,2.71,15.21,15.21,0,0,1,3.87,4.72,18.27,18.27,0,0,1,2,6.84h20.48a41.09,41.09,0,0,0-3.66-14.69A39.4,39.4,0,0,0,592.93,169a36.8,36.8,0,0,0-11.62-7.69,35.86,35.86,0,0,0-14-2.76,37.74,37.74,0,0,0-17.77,4,40.28,40.28,0,0,0-12.94,10.61,46,46,0,0,0-7.9,14.91,55.78,55.78,0,0,0-2.65,17,47.72,47.72,0,0,0,2.07,13.42,76.86,76.86,0,0,0,6.1,14.59h-97q.1-1.7.16-4.24t.16-6.68q.1-4.14.16-10.45t.05-15.76a35.89,35.89,0,0,0-3-14.54,38,38,0,0,0-8.12-11.88,38.89,38.89,0,0,0-12-8.06,37,37,0,0,0-29.07,0,38,38,0,0,0-20,19.95,35.87,35.87,0,0,0-3,14.54v22.6a38.29,38.29,0,0,0,1.8,12.25,33.1,33.1,0,0,0,4.77,9.34,27.66,27.66,0,0,0,7,6.63,42.57,42.57,0,0,0,8.38,4.3,43.53,43.53,0,0,0,8.91,2.33,58,58,0,0,0,8.7.69,49.6,49.6,0,0,0,5.2-.32q3-.32,7-1.06a35.88,35.88,0,0,1-4.83,10.61,27.49,27.49,0,0,1-6.95,7.06,28.19,28.19,0,0,1-8.54,4,35.16,35.16,0,0,1-9.39,1.27,51,51,0,0,1-8-.64,45.66,45.66,0,0,1-7.75-1.91v19.63a70.53,70.53,0,0,0,7.48,1.33,61.18,61.18,0,0,0,7.48.48,57.07,57.07,0,0,0,16.71-2.44,45.75,45.75,0,0,0,14.64-7.53,49.5,49.5,0,0,0,11.56-12.84,60,60,0,0,0,7.48-18.25H608.15V233.12q-9,0-17.35.05T573.46,233.34Zm-156.07,0H400.09a18.56,18.56,0,0,1-6.26-1.33,16.93,16.93,0,0,1-9.34-8.91,17.46,17.46,0,0,1-1.49-7.37v-19.2a17.75,17.75,0,0,1,1.49-7.48,16.92,16.92,0,0,1,9.34-8.91,20.68,20.68,0,0,1,6.26-1.43h.53a18.35,18.35,0,0,1,5.83,1,16.14,16.14,0,0,1,5.52,3.24,15.86,15.86,0,0,1,3.93,5.57,20,20,0,0,1,1.49,8.06Z"/><path class="cls-1" d="M679.45,202.57a72.57,72.57,0,0,0-7.53-13.16,105.63,105.63,0,0,0-10.13-12.1q-5.57-5.73-11.09-10.4l-14.32,15.81q4.56,3.82,9.07,8.06a107.66,107.66,0,0,1,8.17,8.54,57.48,57.48,0,0,1,6.1,8.54,22.65,22.65,0,0,1,3,8,20.56,20.56,0,0,1-1.22,6.21,16.71,16.71,0,0,1-3.29,5.57,16.5,16.5,0,0,1-5.52,4,18.49,18.49,0,0,1-7.8,1.54h-26.1v20.37h26.52a35.08,35.08,0,0,0,14.43-3,39.29,39.29,0,0,0,20.11-20.11,34.81,34.81,0,0,0,3-14.32A39.84,39.84,0,0,0,679.45,202.57Z"/></svg>