<svg id="Layer_1" data-name="Layer 1" xmlns="http://www.w3.org/2000/svg" viewBox="0 0 1080 430"><defs><style>.cls-1{fill:#0a0a0a;}</style></defs><title>2 PNG</title><path class="cls-1" d="M493.66,214.31a64.23,64.23,0,0,0-5-25.4,62.36,62.36,0,0,0-13.85-20.36A64,64,0,0,0,454,155a67.84,67.84,0,0,0-25.86-4.86H379.41V278.49h49.15a67.34,67.34,0,0,0,25.67-4.86,62.37,62.37,0,0,0,34.48-34A64.43,64.43,0,0,0,493.66,214.31Zm-27.23,23.38a40.1,40.1,0,0,1-15.59,15.86q-10,5.69-23.2,5.69H400.5V169.38h27.14a45.75,45.75,0,0,1,23,5.68,41,41,0,0,1,15.68,15.77A46.63,46.63,0,0,1,472,214.12Q472,227.51,466.43,237.69Z"/><path class="cls-1" d="M531.45,150.12,478.64,278.49H501l9.87-24.76H566l9.78,24.76h22.74L546.12,150.12Zm-13.26,85.27,20.4-51.18,20.22,51.18Z"/><path class="cls-1" d="M666.1,204.77a33.94,33.94,0,0,0-16.77-4.7L682,162.59V150.12h-79.4V169h49.06l-29.26,34.11v12.47a33.9,33.9,0,0,1,6.24-1.37,52.52,52.52,0,0,1,6.78-.46,33.3,33.3,0,0,1,14.4,2.84,21.36,21.36,0,0,1,9.17,8,25.46,25.46,0,0,1,0,24.75,21.84,21.84,0,0,1-8.89,8.25,29.21,29.21,0,0,1-13.57,2.94A33.54,33.54,0,0,1,621.27,257a27,27,0,0,1-10.82-9.35L596.14,262a46.6,46.6,0,0,0,17.51,13.67,55.76,55.76,0,0,0,23.2,4.67q13.93,0,24.39-5.32a40,40,0,0,0,16.32-14.85,41.13,41.13,0,0,0,5.87-22q0-11.55-4.68-20.08A34.43,34.43,0,0,0,666.1,204.77Z"/><polygon class="cls-1" points="807.43 240.29 779.16 150.12 764.49 150.12 736.22 240.29 707.28 150.12 686.55 150.12 728.73 278.49 743.4 278.49 771.83 188.53 800.25 278.49 814.92 278.49 857.1 150.12 836.38 150.12 807.43 240.29"/><rect class="cls-1" x="864.26" y="179.24" width="20.16" height="99.23"/><rect class="cls-1" x="864.26" y="149.68" width="20.16" height="20.21"/><rect class="cls-1" x="1000.84" y="179.24" width="20.16" height="99.23"/><rect class="cls-1" x="999.72" y="149.68" width="20.16" height="20.21"/><polygon class="cls-1" points="894.59 169.38 931.91 169.38 931.91 278.49 953 278.49 953 169.38 990.32 169.38 990.32 150.12 894.59 150.12 894.59 169.38"/><path class="cls-1" d="M59,109.58V320.42A38.56,38.56,0,0,0,97.56,359H308.4A38.56,38.56,0,0,0,347,320.42V109.58A38.56,38.56,0,0,0,308.4,71H97.56A38.56,38.56,0,0,0,59,109.58ZM238.65,268.71a65,65,0,0,1-34.91,34.91,64,64,0,0,1-25.52,5.16,62.61,62.61,0,0,1-20.76-3.46,68.87,68.87,0,0,1-18.12-9.47,65.7,65.7,0,0,1-23.54-32.56l35.44-11.63a30.72,30.72,0,0,0,2.91,8.06,29.52,29.52,0,0,0,5.42,7.41,25.1,25.1,0,0,0,7.94,5.29,27,27,0,0,0,10.71,2,29.56,29.56,0,0,0,12.56-2.51,25.66,25.66,0,0,0,9-6.72,27.29,27.29,0,0,0,5.29-10A42.63,42.63,0,0,0,206.78,243a26,26,0,0,0-8.2-19.65,27.43,27.43,0,0,0-12.51-6.77l30.77-26.33a65.52,65.52,0,0,1,21.82,78.46Zm-96.53-25.57,31-81.05,49.24-22.72-62.92,15-28.13-33.13H290.16Z"/></svg>